<?xml version="1.0" encoding="UTF-8"?>
<svg width="100px" height="21px" viewBox="0 0 100 21" version="1.1" xmlns="http://www.w3.org/2000/svg" xmlns:xlink="http://www.w3.org/1999/xlink">
    <!-- Generator: Sketch 46.2 (44496) - http://www.bohemiancoding.com/sketch -->
    <title>amazon-pay</title>
    <desc>Created with Sketch.</desc>
    <defs>
        <polygon id="path-1" points="10.6666667 0.606629032 10.6666667 17.2210161 0.189766063 17.2210161 0.189766063 0.606629032 10.6666667 0.606629032"></polygon>
        <polygon id="path-3" points="9.81015468 0.145645161 0.0630666667 0.145645161 0.0630666667 11.9885613 9.81015468 11.9885613 9.81015468 0.145645161"></polygon>
        <polygon id="path-5" points="9.74568951 0.145645161 0.000266666667 0.145645161 0.000266666667 11.9885613 9.74568951 11.9885613 9.74568951 0.145645161"></polygon>
    </defs>
    <g id="Desktop" stroke="none" stroke-width="1" fill="none" fill-rule="evenodd">
        <g id="btea-desktop-cart" transform="translate(-1053.000000, -1025.000000)">
            <g id="checkout" transform="translate(840.000000, 972.000000)">
                <g id="amazon-pay" transform="translate(213.000000, 53.000000)">
                    <g id="amazon-logo">
                        <path d="M74.7614667,11.0124 C74.1154667,11.0124 73.6148,10.8897871 73.0201333,10.5876581 L73.0201333,2.70520645 C73.6228,2.51756129 74.1801333,2.43288387 74.8061333,2.43288387 C77.1268,2.43288387 78.5128,4.00381935 78.5128,6.63152903 C78.5128,9.37372258 77.1101333,11.0124 74.7614667,11.0124 M74.8274667,0.866690323 C73.7501333,0.866690323 72.5681333,1.0970129 71.5001333,1.51836774 C71.4061333,1.55427097 71.3428,1.64843226 71.3428,1.75207742 L71.3428,17.5020774 C71.3428,17.6395935 71.4541333,17.7527226 71.5894667,17.7527226 L72.7734667,17.7527226 C72.9088,17.7527226 73.0201333,17.6395935 73.0201333,17.5020774 L73.0201333,12.2920452 C73.5641333,12.490529 74.1801333,12.6016258 74.7614667,12.6016258 C77.9968,12.6016258 80.2574667,10.1649484 80.2574667,6.67556129 C80.2574667,3.03781935 78.2274667,0.866690323 74.8274667,0.866690323" id="Fill-1" fill="#FFFFFF"></path>
                        <path d="M87.766,6.98033226 L87.766,9.48136452 C87.1373333,10.1594613 86.1726667,11.0130097 84.8873333,11.0130097 C83.7466667,11.0130097 83.0113333,10.2380419 83.0113333,9.0363 C83.0113333,8.32704194 83.3273333,7.76817097 83.9053333,7.46604194 C84.4213333,7.1916871 85.0566667,7.06026774 85.966,7.0413 L87.766,6.98033226 Z M89.4426667,8.06081613 L89.4426667,4.65610645 C89.4426667,2.24788065 88.068,0.866622581 85.6673333,0.866622581 C84.7713333,0.866622581 83.4086667,1.06104194 82.0046667,1.99723548 C81.8953333,2.06904194 81.862,2.21333226 81.9233333,2.32917097 L82.438,3.25926774 C82.4706667,3.31888065 82.526,3.36088065 82.5886667,3.37849355 C82.654,3.39542903 82.7233333,3.3873 82.78,3.35071935 C83.5446667,2.87855806 84.338,2.45720323 85.622,2.45720323 C87.0046667,2.45720323 87.766,3.29381613 87.766,4.81597742 L87.766,5.39042903 L85.8813333,5.45207419 C84.7713333,5.49746129 83.936,5.59771935 83.1966667,5.95133226 C81.9526667,6.54204194 81.2666667,7.65504194 81.2666667,9.08236452 C81.2666667,11.1539129 82.7166667,12.6008806 84.7973333,12.6008806 C85.8946667,12.6008806 86.9306667,12.1686871 87.8846667,11.3178484 L88.0633333,12.1768161 C88.0866667,12.2913 88.1866667,12.3753 88.3026667,12.3753 L89.4193333,12.3753 C89.4966667,12.3753 89.5693333,12.3380419 89.6153333,12.2763968 C89.662,12.2161065 89.6773333,12.1354935 89.6586667,12.0609774 C89.5093333,11.4797516 89.4426667,10.2468484 89.4426667,8.06081613 L89.4426667,8.06081613 Z" id="Fill-3" fill="#FFFFFF"></path>
                        <g id="Group-7" transform="translate(89.333333, 0.531639)">
                            <mask id="mask-2" fill="white">
                                <use xlink:href="#path-1"></use>
                            </mask>
                            <g id="Clip-6"></g>
                            <path d="M10.4196667,0.606629032 L9.14633333,0.606629032 C9.04233333,0.606629032 8.94433333,0.675725806 8.91233333,0.779370968 L6.17033333,9.32975806 L2.58366667,0.759048387 C2.545,0.666241935 2.45633333,0.606629032 2.357,0.606629032 L0.993666667,0.606629032 C0.911666667,0.606629032 0.835,0.648629032 0.787,0.719758065 C0.742333333,0.790209677 0.734333333,0.878951613 0.768333333,0.956177419 L5.37966667,11.7461129 C4.625,14.3961774 3.58433333,15.6317903 2.11233333,15.6317903 C1.64233333,15.6317903 1.19966667,15.5457581 0.797666667,15.3784355 C0.731666667,15.3520161 0.657666667,15.353371 0.594333333,15.3858871 C0.529666667,15.4184032 0.483666667,15.4766613 0.465,15.5471129 L0.198333333,16.6140484 C0.165666667,16.7359839 0.229,16.8626613 0.344333333,16.9080484 C0.891666667,17.1309194 1.397,17.2210161 2.08766667,17.2210161 C3.72166667,17.2210161 5.415,16.676371 6.74366667,12.7155 L10.6543333,0.937209677 C10.679,0.86066129 10.6676667,0.77733871 10.6203333,0.711629032 C10.5736667,0.645919355 10.4996667,0.606629032 10.4196667,0.606629032" id="Fill-5" fill="#FFFFFF" mask="url(#mask-2)"></path>
                        </g>
                        <path d="M40.8705333,16.4568871 C37.0438667,19.3257581 31.4938667,20.8540161 26.7145333,20.8540161 C20.0178667,20.8540161 13.9872,18.3374032 9.42386667,14.1502742 C9.06453333,13.8224032 9.38386667,13.3725968 9.81386667,13.626629 C14.7405333,16.5395323 20.8285333,18.2906613 27.1165333,18.2906613 C31.3598667,18.2906613 36.0218667,17.3978226 40.3145333,15.5464355 C40.9618667,15.269371 41.5038667,15.9840484 40.8705333,16.4568871" id="Fill-8" fill="#FFFFFF"></path>
                        <path d="M42.4636,14.6085484 C41.9736,13.9717742 39.2269333,14.3084516 37.9922667,14.4581613 C37.6209333,14.5021935 37.5609333,14.1702581 37.8982667,13.9324839 C40.0902667,12.3676452 43.6796,12.818129 44.0976,13.3417742 C44.5182667,13.8674516 43.9862667,17.5282258 41.9336,19.2725806 C41.6176,19.5415161 41.3169333,19.3972258 41.4556,19.0436129 C41.9196,17.8723548 42.9536,15.246 42.4636,14.6085484" id="Fill-10" fill="#FFFFFF"></path>
                        <path d="M38.0804667,2.88336774 L38.0804667,1.36459355 C38.0818,1.13223871 38.2518,0.977787097 38.4598,0.978464516 L45.1624667,0.977787097 C45.3751333,0.977787097 45.5478,1.13562581 45.5478,1.36120645 L45.5478,2.66727097 C45.5478,2.88336774 45.3644667,3.16720645 45.0424667,3.62107742 L41.5711333,8.65904516 C42.8598,8.62720645 44.2251333,8.82230323 45.3951333,9.49227097 C45.6604667,9.64265806 45.7311333,9.86688387 45.7511333,10.0843355 L45.7511333,11.7081097 C45.7511333,11.9303032 45.5091333,12.1870452 45.2578,12.0563032 C43.1944667,10.9568516 40.4558,10.8342387 38.1744667,12.070529 C37.9418,12.1938194 37.6964667,11.9397871 37.6964667,11.7175935 L37.6964667,10.1737548 C37.6964667,9.92581935 37.7044667,9.50581935 37.9478,9.12917419 L41.9704667,3.26543226 L38.4678,3.26407742 C38.2544667,3.26407742 38.0818,3.10894839 38.0804667,2.88336774" id="Fill-12" fill="#FFFFFF"></path>
                        <path d="M13.6328667,12.3732 L11.5942,12.3732 C11.3982,12.360329 11.2442,12.2140065 11.2288667,12.0256839 L11.2288667,1.3902 C11.2288667,1.17613548 11.4075333,1.00542581 11.6235333,1.00542581 L13.5222,1.00542581 C13.7222,1.01626452 13.8795333,1.16936129 13.8935333,1.36378065 L13.8935333,2.75113548 L13.9302,2.75113548 C14.4248667,1.40916774 15.3575333,0.7812 16.6168667,0.7812 C17.8902,0.7812 18.6882,1.40916774 19.2615333,2.75113548 C19.7535333,1.40916774 20.8768667,0.7812 22.0762,0.7812 C22.9328667,0.7812 23.8655333,1.13955484 24.4382,1.94432903 C25.0828667,2.84055484 24.9522,4.14052258 24.9522,5.28061935 L24.9502,11.9897806 C24.9502,12.2024903 24.7728667,12.3732 24.5555333,12.3732 L22.5215333,12.3732 C22.3162,12.360329 22.1542,12.1963935 22.1542,11.9918129 L22.1542,6.35500645 C22.1542,5.9052 22.1915333,4.7888129 22.0988667,4.36271613 C21.9435333,3.64397419 21.4868667,3.4448129 20.8982,3.4448129 C20.4035333,3.4448129 19.8888667,3.78013548 19.6788667,4.31868387 C19.4695333,4.85249032 19.4882,5.74871613 19.4882,6.35500645 L19.4882,11.9897806 C19.4882,12.2024903 19.3128667,12.3732 19.0982,12.3732 L17.0595333,12.3732 C16.8542,12.360329 16.6922,12.1963935 16.6922,11.9918129 L16.6922,6.35500645 C16.6922,5.16952258 16.8822,3.42178065 15.4348667,3.42178065 C13.9688667,3.42178065 14.0262,5.12278065 14.0262,6.35500645 L14.0262,11.9897806 C14.0262,12.2024903 13.8488667,12.3732 13.6328667,12.3732" id="Fill-14" fill="#FFFFFF"></path>
                        <path d="M51.3366667,2.95348065 C49.834,2.95348065 49.7373333,5.03315806 49.7373333,6.33109355 C49.7373333,7.62970645 49.7186667,10.4050935 51.318,10.4050935 C52.898,10.4050935 52.9753333,8.1669 52.9753333,6.79986774 C52.9753333,5.90499677 52.9366667,4.8312871 52.67,3.98112581 C52.442,3.24341613 51.984,2.95348065 51.3366667,2.95348065 M51.318,0.781674194 C54.344,0.781674194 55.982,3.42157742 55.982,6.77819032 C55.982,10.0243839 54.1726667,12.5985774 51.318,12.5985774 C48.3466667,12.5985774 46.73,9.9552871 46.73,6.66980323 C46.73,3.35586774 48.37,0.781674194 51.318,0.781674194" id="Fill-16" fill="#FFFFFF"></path>
                        <path d="M59.907,12.3745548 L57.8723333,12.3745548 C57.671,12.360329 57.5103333,12.1963935 57.5103333,11.9911355 L57.5056667,1.35429677 C57.523,1.15987742 57.6923333,1.00678065 57.897,1.00678065 L59.7883333,1.00678065 C59.9656667,1.01355484 60.115,1.13684516 60.1503333,1.30416774 L60.1503333,2.92997419 L60.1903333,2.92997419 C60.761,1.47623226 61.5603333,0.7812 62.9676667,0.7812 C63.8816667,0.7812 64.7776667,1.11787742 65.3476667,2.03510323 C65.881,2.88729677 65.881,4.31868387 65.881,5.34632903 L65.881,12.0399097 C65.8576667,12.2275548 65.691,12.3745548 65.4876667,12.3745548 L63.4456667,12.3745548 C63.2563333,12.3616839 63.1036667,12.2194258 63.0823333,12.0399097 L63.0823333,6.26355484 C63.0823333,5.10245806 63.2143333,3.39942581 61.8056667,3.39942581 C61.311,3.39942581 60.8563333,3.73610323 60.627,4.25026452 C60.3416667,4.89855484 60.303,5.5482 60.303,6.26355484 L60.303,11.9897806 C60.2983333,12.2024903 60.1243333,12.3745548 59.907,12.3745548" id="Fill-18" fill="#FFFFFF"></path>
                        <g id="Group-22" transform="translate(26.666667, 0.531639)">
                            <mask id="mask-4" fill="white">
                                <use xlink:href="#path-3"></use>
                            </mask>
                            <g id="Clip-21"></g>
                            <path d="M8.1264,11.8144645 C7.9924,11.9384323 7.7964,11.9458839 7.64573333,11.8632387 C6.96906667,11.2921742 6.84706667,11.0286581 6.47706667,10.4819806 C5.35706667,11.6424 4.56306667,11.9885613 3.1144,11.9885613 C1.39906667,11.9885613 0.0630666667,10.9107871 0.0630666667,8.75930323 C0.0630666667,7.07591613 0.9584,5.93243226 2.23773333,5.37152903 C3.3444,4.8804 4.8884,4.78962581 6.07173333,4.65346452 L6.07173333,4.38520645 C6.07173333,3.89204516 6.10773333,3.31081935 5.8224,2.88472258 C5.57573333,2.50469032 5.0984,2.34481935 4.67906667,2.34481935 C3.9024,2.34481935 3.20973333,2.74991613 3.03906667,3.59262581 C3.00306667,3.77620645 2.86906667,3.96046452 2.6844,3.96994839 L0.709733333,3.75452903 C0.5424,3.71523871 0.357066667,3.58043226 0.405066667,3.32165806 C0.859733333,0.881593548 3.02506667,0.14523871 4.96373333,0.14523871 C5.9564,0.14523871 7.25373333,0.416883871 8.03706667,1.17830323 C9.0264,2.12059355 8.93106667,3.37517419 8.93106667,4.74491613 L8.93106667,7.97281935 C8.93106667,8.94423871 9.3304,9.37033548 9.70173333,9.89465806 C9.8324,10.0809484 9.86173333,10.3078839 9.69573333,10.4433677 C9.27773333,10.7983355 8.54106667,11.4534 8.13106667,11.8212387 L8.1264,11.8144645 Z M6.07173333,6.76430323 C6.07173333,7.57043226 6.08906667,8.24514194 5.68973333,8.96117419 C5.3644,9.54375484 4.8484,9.9027871 4.2764,9.9027871 C3.4964,9.9027871 3.03706667,9.29649677 3.03706667,8.40230323 C3.03706667,6.63423871 4.59573333,6.31449677 6.07173333,6.31449677 L6.07173333,6.76430323 Z" id="Fill-20" fill="#FFFFFF" mask="url(#mask-4)"></path>
                        </g>
                        <g id="Group-25" transform="translate(0.000000, 0.531639)">
                            <mask id="mask-6" fill="white">
                                <use xlink:href="#path-5"></use>
                            </mask>
                            <g id="Clip-24"></g>
                            <path d="M8.06226667,11.8144645 C7.92826667,11.9384323 7.7336,11.9458839 7.58293333,11.8632387 C6.90493333,11.2921742 6.78426667,11.0286581 6.41293333,10.4819806 C5.29426667,11.6424 4.50026667,11.9885613 3.05026667,11.9885613 C1.33293333,11.9885613 0.000266666667,10.9107871 0.000266666667,8.75930323 C0.000266666667,7.07591613 0.8956,5.93243226 2.17426667,5.37152903 C3.2816,4.8804 4.82426667,4.78962581 6.0076,4.65346452 L6.0076,4.38520645 C6.0076,3.89204516 6.0476,3.31081935 5.7596,2.88472258 C5.51293333,2.50469032 5.03493333,2.34481935 4.61626667,2.34481935 C3.8376,2.34481935 3.14693333,2.74991613 2.97626667,3.59262581 C2.94226667,3.77620645 2.80693333,3.96046452 2.62293333,3.96994839 L0.6456,3.75452903 C0.478933333,3.71523871 0.294266667,3.58043226 0.340266667,3.32165806 C0.7956,0.881593548 2.95893333,0.14523871 4.90093333,0.14523871 C5.8936,0.14523871 7.1896,0.416883871 7.97093333,1.17830323 C8.9636,2.12059355 8.86826667,3.37517419 8.86826667,4.74491613 L8.86826667,7.97281935 C8.86826667,8.94423871 9.2656,9.37033548 9.63893333,9.89465806 C9.76693333,10.0809484 9.7976,10.306529 9.6316,10.4433677 C9.21493333,10.7983355 8.47226667,11.4534 8.06693333,11.8212387 L8.06226667,11.8144645 Z M6.0076,6.76430323 C6.0076,7.57043226 6.02626667,8.24514194 5.6256,8.96117419 C5.30026667,9.54375484 4.7856,9.9027871 4.21493333,9.9027871 C3.43226667,9.9027871 2.97493333,9.29649677 2.97493333,8.40230323 C2.97493333,6.63423871 4.53426667,6.31449677 6.0076,6.31449677 L6.0076,6.76430323 Z" id="Fill-23" fill="#FFFFFF" mask="url(#mask-6)"></path>
                        </g>
                    </g>
                </g>
            </g>
        </g>
    </g>
</svg>