<svg xmlns="http://www.w3.org/2000/svg" viewBox="0 0 65 65" enable-background="new 0 0 65 65"><style type="text/css">.st0{fill-rule:evenodd;clip-rule:evenodd;fill:#B4CFAB;}</style><path class="st0" d="M21.8 16.7l-8.8 14.8c-2.5 4.1-1.8 9.4 1.5 12.8 1.9 2 4.5 3 7.2 3s5.3-1.1 7.2-3c3.4-3.4 4-8.7 1.5-12.8l-8.6-14.8zm5.7 26.1c-1.5 1.5-3.6 2.5-5.8 2.5-2.2 0-4.3-.9-5.8-2.5-2.7-2.7-3.2-6.9-1.2-10.2l7-11.8 7 11.8c2 3.3 1.5 7.5-1.2 10.2zM26.4 35.8c.2 1.3-.3 2.5-1.1 3.5-.5.6-1.2.9-1.8 1.1l.5 2.1c1.1-.3 2.1-.8 2.8-1.7 1.3-1.4 1.9-3.4 1.7-5.3l-2.1.3zM45 9.5l-7.3 11.6c-2 3.2-1.5 7.3 1.3 10 1.6 1.5 3.7 2.4 6 2.4 2.2 0 4.4-.8 6-2.4 2.8-2.7 3.3-6.8 1.3-10l-7.3-11.6zm4.4 20.1c-1.2 1.2-2.8 1.8-4.5 1.8-1.7 0-3.3-.6-4.5-1.8-2.1-2-2.5-5.1-.9-7.4l5.4-8.6 5.5 8.6c1.5 2.4 1.1 5.5-1 7.4zM47.5 25.8c.1 1-.1 1.9-.7 2.6-.3.4-.8.7-1.3.8l.4 2.3c.8-.2 1.6-.7 2.2-1.5 1-1.2 1.5-2.9 1.3-4.5l-1.9.3zM40.3 36l-5.7 9.4c-1.6 2.6-1.2 5.9 1 8.1 1.3 1.3 3 1.9 4.8 1.9 1.8 0 3.5-.7 4.8-1.9 2.2-2.2 2.6-5.5 1-8.1l-5.9-9.4zm3.2 16c-.8.8-2 1.3-3.1 1.3-1.2 0-2.3-.4-3.1-1.3-1.5-1.4-1.7-3.7-.7-5.4l3.8-6.3 3.8 6.3c1 1.7.8 4-.7 5.4zM42.1 47.8c.1.5-.1 1-.6 1.4-.3.2-.6.4-1 .4l.5 1.9c.8-.1 1.6-.5 2.2-1 1-.8 1.4-1.9 1.3-3l-2.4.3z"/></svg>