<svg xmlns="http://www.w3.org/2000/svg" viewBox="0 0 65 65" enable-background="new 0 0 65 65"><style type="text/css">.st0{fill-rule:evenodd;clip-rule:evenodd;fill:#B4CFAB;}</style><path class="st0" d="M53.5 35.2c0-.6-.3-1.1-.9-1.4l-9.1-4.1h-.1v-11.5c0-.6-.3-1.1-.9-1.4l-9.1-4.1c-.6-.3-1.3-.3-1.9 0l-9.1 4.1c-.5.2-.9.8-.9 1.4v11.5h-.1l-9.1 4.1c-.5.2-.9.8-.9 1.4v11.2c0 .9.5 1.6 1.3 2l8.8 3.9c.3.1.6.2.9.2.3 0 .6-.1.9-.2l8.8-4c.2-.1.3-.2.4-.3.1.1.3.2.5.3l8.8 3.9c.3.1.6.2.9.2.3 0 .6-.1.9-.2l8.8-4c.8-.3 1.3-1.1 1.3-2v-11c-.2.1-.2.1-.2 0zm-1.9 0l-8.8 4c-.1.1-.3.1-.5 0l-8.8-4 2.3-1 6.3-2.8.2-.1c.2-.1.4-.1.5 0l8.8 3.9zm-27.6-5.2c-.6-.3-.8-.6-.8-.6v-9.5l8.4 3.8h.1v9.8l-7.7-3.5zm17.8-.6c0 .2-.1.3-.2.4l-6.3 2.9-2 .9v-9.8h.1l8.4-3.8v9.4zm-9.6-15.2c.2-.1.4-.1.5 0l8.8 4-8.8 4c-.1.1-.3.1-.5 0l-8.8-4 8.8-4zm-10.1 17c.2-.1.4-.1.5 0l.2.1 8.6 3.9-8.8 4c-.1.1-.3.1-.5 0l-8.8-4 8.8-4zm-8.7 15.7c-.2-.1-.3-.3-.3-.5v-9.5l8.4 3.8h.1v9.8l-8.2-3.6zm18-.1l-8.2 3.7v-9.8h.1l8.4-3.8v9.5c0 .2-.1.4-.3.4zm2.2.1c-.2-.1-.3-.3-.3-.5v-9.5l8.4 3.8h.1v9.8l-8.2-3.6zm18-.1l-8.2 3.7v-9.8h.1l8.4-3.8v9.5c0 .2-.2.4-.3.4z"/></svg>