<svg xmlns="http://www.w3.org/2000/svg" viewBox="0 0 65 65" enable-background="new 0 0 65 65"><style type="text/css">.st0{fill-rule:evenodd;clip-rule:evenodd;fill:#B4CFAB;}</style><path class="st0" d="M42.1 29.8c-5.6 2.7-7.5 8.2-5 14.7 0 .1.1.2.2.3-.6 1.1-1 2.1-1.3 2.9-1.2-5.5-2.3-12.5-2.3-19.9h.1c.2 0 4.7-.6 4.7-9.4 0-4.7-1.9-10.1-2-10.4l-.9-2.6-.9 2.6c-3.8 10.8-3.3 23.1-1.9 33-.5-.5-1.1-.9-1.6-1.3-.3-4.3-2.2-7.4-5.7-9.2-3.3-4.3-6.8-6.4-10.4-6.3-5.9.2-9.7 6.3-9.9 6.6l-.1.2v.6l.1.3c0 .1.1.1.2.2l.1.1.2.1h1.6c8.6 0 17.6 5.5 20.9 7.7 1.1.7 3.6 2.6 4.8 4.4.1.1.1.2.2.2 1.5 8 3.4 13.7 3.6 14.2.1.4.5.7.9.7.1 0 .2 0 .3-.1.5-.2.8-.7.6-1.2 0-.1-1-2.9-2.1-7.4.2-.1.4-.3.5-.5.6-1.6 1.8-4.9 4.3-8.3h.1c.2 0 .4 0 .5-.2 2.5-1.6 5.5-.8 5.6-.8.5.2 1.1-.1 1.2-.7.2-.5-.1-1.1-.7-1.2-.1 0-2-.6-4.3-.1 2-2.1 4.5-4 7.7-5.6.5-.2.7-.8.5-1.3-.2-.5-.8-.7-1.3-.5-6.1 2.9-9.8 7.2-12.2 11-1.5-5 .1-9 4.4-11.1 4.1-2 8.5-2.2 13.6-1.7l-.9 1.4c-1.3 2.4-1.9 5.1-2.4 7.4-.8 4.2-3 7-11 6.6-.5 0-1 .4-1 .9s.4 1 .9 1h1.3c6.9 0 10.5-2.6 11.7-8.2.4-2.2 1-4.7 2.2-6.9.3-.6.7-1.1 1.1-1.7l.6-.9.8-1.3-1.6-.2c-4.7-.3-10.5-.7-16 1.9m-6.6-18c.5 1.9 1 4.4 1 6.7 0 6-2.2 7.2-2.8 7.4 0-4.8.6-9.6 1.8-14.1m-20.4 14.4c2.2-.1 4.5 1 6.7 3.1-1.5-.3-3.2-.5-5-.5-3.2 0-6.2.5-8.2.9 1.4-1.5 3.7-3.4 6.5-3.5m1.7 4.6c7.1 0 11.2 2.5 12.2 7.3-2.9-2-9-5.6-15.8-7.1 1.1-.1 2.3-.2 3.6-.2"/></svg>