<svg xmlns="http://www.w3.org/2000/svg" viewBox="0 0 20 20" enable-background="new 0 0 20 20"><style type="text/css">.st0{fill-rule:evenodd;clip-rule:evenodd;fill:#56943E;}</style><path class="st0" d="M15 2.8c1.2 0 2.2 1 2.2 2.2v10c0 1.2-1 2.2-2.2 2.2h-10c-1.2 0-2.2-1-2.2-2.2v-10c0-1.2 1-2.2 2.2-2.2h10m0-1.8h-10c-2.2 0-4 1.8-4 4v10c0 2.2 1.8 4 4 4h10c2.2 0 4-1.8 4-4v-10c0-2.2-1.8-4-4-4M10 14.5c-2.5 0-4.5-2-4.5-4.5s2-4.5 4.5-4.5 4.5 2 4.5 4.5-2 4.5-4.5 4.5m0-7c-1.4 0-2.5 1.1-2.5 2.5s1.1 2.5 2.5 2.5 2.5-1.1 2.5-2.5-1.1-2.5-2.5-2.5"/></svg>