<svg xmlns="http://www.w3.org/2000/svg" viewBox="0 0 38 24" enable-background="new 0 0 38 24"><style type="text/css">.st0{fill:#3086C8;}</style><path class="st0" d="M2.3 0c-1.3 0-2.3.9-2.3 2v20c0 1.1 1 2 2.3 2h33.2c1.4 0 2.5-.9 2.5-2v-20c0-1.1-1.1-2-2.5-2h-33.2zm15.1 13.3l-1.5-3.3h-2.1v4.7l-2.1-4.7h-1.7l-2.1 5h1.3l.5-1.2h2.5l.5 1.2h2.5v-3.7l1.7 3.7h1.1l1.6-3.6v3.6h1.5v-5h-2.1l-1.6 3.3zm-7.3-.6l.8-1.7.8 1.7h-1.6zm17.3-1.1l-1.4-1.6h-4v5h3.8l1.5-1.6 1.5 1.6h1.1v-.5l-1.8-2 1.8-1.9v-.6h-1.1l-1.4 1.6zm-2.3 2.3h-1.9v-1h1.8v-.9h-1.8v-1h2.1l1.2 1.4c0 .1-1.4 1.5-1.4 1.5zm5.9-3.2l-1.7 1.8 1.7 1.8v1.7h-2.8l-.9-1.1-1 1.1h-7.3v-.5l-.3.5h-2.3l-.3-.6v.6h-4.2l-.5-1.2h-.8l-.6 1.2h-3v-1.9l.9-1.6 1.5-3.5h3.1l.4 1v-1h3.8l.8 1.7.9-1.7h8.6-.4l.9 1 1-1h2.5v1.7z"/></svg>