<svg xmlns="http://www.w3.org/2000/svg" viewBox="0 0 20 27" enable-background="new 0 0 20 27"><style type="text/css">.st0{fill-rule:evenodd;clip-rule:evenodd;fill:#315428;} .st1{fill-rule:evenodd;clip-rule:evenodd;fill:#77A864;}</style><path class="st0" d="M11.7 24.9h-8c-.9 0-1.6-.7-1.6-1.6v-19.7c0-.8.7-1.6 1.5-1.6h7.1c1.4 0 2.5.4 3.5 1 .9.6 1.4 1.1 2 2 .6.9.9 1.8 1 3.1.1 1.3-.1 2-.6 3.2l-.3-.2c-1.2-1-2.4-1.6-3.6-1.8-1.2-.3-2-.3-3.2-.1-1.3.1-2.3.4-3.5 1.2-1.2.8-1.8 1.4-2.6 2.6.9 1.4 2 2.3 3.1 2.9.9.5 2 .9 3.2 1 1.2.1 2.6 0 3.8-.4 1.2-.4 2.3-1.1 3.2-2 .5.7.7 1.1.9 1.9.2.8.3 1.3.3 2.1.1 3.5-2.7 6.4-6.2 6.4m8.3-6.3c0-1.2-.1-1.9-.5-3s-.7-1.7-1.4-2.7c.9-1.5 1.2-2.9 1.2-4.3 0-1.5-.4-3-1.1-4.3-.7-1.2-1.4-2-2.7-2.9-1-.7-2.8-1.4-4.7-1.5h-7.2c-2 .1-3.6 1.7-3.6 3.7v19.7c0 2 1.6 3.6 3.6 3.6h8c4.7 0 8.4-3.7 8.4-8.3"/><path class="st1" d="M15 12.9c-2.4 2.7-6.6 2.7-9 0 2.3-2.5 6.1-2.7 8.6-.4l.4.4"/></svg>