<svg xmlns="http://www.w3.org/2000/svg" viewBox="0 0 38 24" enable-background="new 0 0 38 24"><style type="text/css">.st0{opacity:7.000000e-02;enable-background:new ;} .st1{fill:#FFFFFF;} .st2{fill:#EDA024;} .st3{fill:#494949;}</style><path class="st0" d="M35 0h-32c-1.7 0-3 1.3-3 3v18c0 1.7 1.4 3 3 3h32c1.7 0 3-1.3 3-3v-18c0-1.7-1.4-3-3-3z"/><path class="st1" d="M35 1c1.1 0 2 .9 2 2v18c0 1.1-.9 2-2 2h-32c-1.1 0-2-.9-2-2v-18c0-1.1.9-2 2-2h32"/><path class="st2" d="M36.2 24c.7 0 1.8-.7 1.8-2v-6s-4.9 5.9-20.3 8h18.5z"/><path class="st3" d="M9 11h20v2h-20v-2z"/><path class="st2" d="M22 12c0 1.7-1.3 3-3 3s-3-1.4-3-3 1.4-3 3-3c1.7 0 3 1.3 3 3z"/></svg>