<svg xmlns="http://www.w3.org/2000/svg" viewBox="0 0 65 65" enable-background="new 0 0 65 65"><style type="text/css">.st0{fill-rule:evenodd;clip-rule:evenodd;fill:#B4CFAB;}</style><path class="st0" d="M31.5 32c-.1 0-.2 0-.3-.1-.4-.1-.5-.6-.4-1l4.6-9.5c.1-.4.6-.5.9-.4.4.1.5.6.4 1l-4.6 9.5c-.1.4-.3.5-.6.5M23.6 48c-.1 0-.2 0-.3-.1-.4-.1-.5-.5-.4-.9l4.5-8.6c.2-.3.6-.5 1-.3.4.1.5.5.4.9l-4.5 8.6c-.2.3-.4.4-.7.4M34.6 29c-.1 0-.2 0-.3-.1-.4-.1-.6-.5-.4-.8.1-.1 1-2.1 2.8-3 .4-.2.8-.1 1 .3.2.3.1.7-.3.8-1.1.5-1.9 1.8-2.2 2.3-.1.4-.3.5-.6.5M31.4 28c-.1 0-.2 0-.3-.1-.3-.2-.4-.6-.2-1 .2-.5.8-2 .7-3.1-.1-.4.2-.8.5-.8.3-.1.6.2.7.6.2 1.9-.8 3.9-.8 4-.2.3-.4.4-.6.4"/><path class="st0" d="M23.5 45c-.3 0-.6-.2-.7-.6-.2-1.2 1-3.5 1.8-4.2.3-.3.7-.2 1 .1.3.3.2.7-.1 1-.6.6-1.5 2.4-1.4 2.9.1.3-.1.7-.6.8zM26.4 47c-.3 0-.5-.3-.6-.7-.2-2 .9-4 .9-4 .2-.3.5-.4.8-.2.2.2.3.7.1 1.1 0 0-.8 1.5-.8 3 .2.4 0 .8-.4.8M38.6 18.4c-.1-.1-.1-.1-.1-.2l-.1-.1c-.1 0-.1-.1-.1-.1s-.1 0-.1-.1h-.30000000000000004c-3.6.8-6.2 2.5-7.6 5.2-2.6 4.9-.3 11.2-.2 11.4 0 0 0 .1.1.1 0 0 0 .1.1.1l.1.1.1.1c.1 0 .1.1.1.1h.5l.1-.1s5.2-1.9 7.7-6.1c2.5-4.5-.3-10.1-.3-10.4m-1.3 9.9c-1.1 2.3-3.2 4.1-6.3 5.1-.5-1.7-1.5-6.1.4-9.5 1.1-2.1 3.2-3.6 6.1-4.3.4 1.4 1.4 5.3-.2 8.7M30.4 35.5c0-.4-.4-.5-.7-.5-.1 0-5.5 1-7.6 4.7-2.7 4.6-.2 10.5-.1 10.8 0 0 0 .1.1.1 0-.1-.1-.1-.1-.1.1.3.4.5.7.5h.3c10.4-3 7.4-15.5 7.4-15.5m-7.4 14c-.5-1.5-1.6-5.7.2-8.9 1.1-1.9 3-3.3 5.8-4 .5 2.4 1.4 10.3-6 12.9M22.5 18.4c-6.6-6.5-19.8-3.9-20-3.9-.4 0-.7.4-.7.8.1 8.3 2.4 14.4 6.9 17.7 3.2 2.3 7 3 10.3 3 4.4 0 7.9-1.2 8.3-1.3.3-.1.5-.3.5-.6 0-.4.8-9.7-5.3-15.7m-12.9 13.3c-4-3-6.2-8.2-6.4-15.7 8.2-1.5 14.4-.4 18.4 3.4 4.9 4.6 4.9 12 4.9 13.9-2.1.7-10.9 2.9-16.9-1.6M63.1 46.3c0-.1.1-.1.1-.1v-.4c-3-6.5-7.3-10.7-12.7-12.5-9.2-3-18.3 2-18.7 2.2l-.1.1c-.1 0-.1.1-.1.1l-.1.1-.1.1v.30000000000000004c.1.3 4.1 9.3 13 12.5 2.1.8 4.1 1.1 6.3 1.1 3.8 0 7.8-1.1 12-3.3.1 0 .1-.1.1-.1.1 0 .1-.1.1-.1.1.1.2 0 .2 0m-18.1 1.1c-7.1-2.6-10.9-9.2-12-11.2 2.1-1 9.6-4.2 17-1.8 4.9 1.6 8.8 5.4 11.5 11.2-6 3-11.5 3.6-16.5 1.8M59.2 46h-.1c-13-2.7-24.7-8.6-24.9-8.6-.3-.1-.5-.6-.3-.9.1-.4.6-.5.9-.4.1.1 11.7 5.9 24.5 8.5.3.1.6.4.6.9 0 .2-.4.5-.7.5M39.5 38c-.3 0-.5-.2-.6-.4-.2-.4-.1-.8.3-1.1.1-.1 3.5-2.1 6.9-2.5.4-.1.7.2.7.7.1.4-.2.8-.6.8-3 .3-6.3 2.3-6.3 2.3-.1.2-.2.2-.4.2M45.5 40c-.2 0-.5-.1-.6-.3-.2-.3-.1-.8.2-1 .1-.1 3.6-2.3 6.9-2.7.4-.1.7.2.7.6.1.3-.2.7-.6.8-3 .3-6.4 2.4-6.4 2.4.1.1 0 .2-.2.2M41.2 45c-.2 0-.4-.1-.5-.2-2.2-2-2.7-3.8-2.8-3.8-.1-.3.1-.8.4-.9.4-.1.8.1.9.4 0 0 .6 1.5 2.4 3.3.3.3.3.7 0 1-.1.1-.3.2-.4.2M47.2 48c-.2 0-.3-.1-.5-.2-2-2.5-2.8-4.7-2.8-4.8-.1-.4 0-.8.3-1 .3-.1.7 0 .8.4 0 0 .8 2.1 2.6 4.3.3.3.3.7 0 1-.1.2-.2.3-.4.3M25.1 33l-.5-.1c-.1-.1-7.9-6.7-20.5-14.6-.4-.2-.4-.6-.2-1 .2-.3.6-.4 1-.2 12.7 7.9 20.6 14.6 20.7 14.7.3.3.4.7.1 1-.1.1-.3.2-.6.2M23.2 29c-.3 0-.6-.3-.6-.6 0 0-.2-3.7-1.7-7.4-.1-.4 0-.8.3-.9.3-.1.7 0 .8.4 1.6 3.9 1.8 7.7 1.8 7.9 0 .2-.2.6-.6.6M18.1 25c-.4 0-.7-.3-.7-.7 0 0-.1-3.2-2.4-6.2-.2-.3-.1-.8.1-1 .3-.2.8-.1 1 .1 2.6 3.4 2.7 6.9 2.7 7.1 0 .4-.3.7-.7.7M18.3 33c-1.4 0-3.2-.1-4.9-.5-.4-.1-.7-.5-.6-.9.1-.4.4-.7.9-.6 4.1.8 8.3.2 8.3.2.4-.1.8.2.8.6.1.4-.2.8-.6.8 0 .2-1.6.4-3.9.4M12.5 29c-1.2 0-2.6-.1-4.1-.5-.4-.1-.6-.5-.6-.9.1-.4.4-.7.8-.6 4 .8 7.2.1 7.3.1.4-.1.8.2.8.5.1.4-.1.8-.5.9 0 .1-1.6.5-3.7.5"/></svg>