<svg xmlns="http://www.w3.org/2000/svg" viewBox="0 0 38 24" enable-background="new 0 0 38 24"><style type="text/css">.st0{opacity:7.000000e-02;enable-background:new ;} .st1{fill:#FFFFFF;} .st2{fill:#EB001B;} .st3{fill:#F79E1B;} .st4{fill:#FF5F00;}</style><path class="st0" d="M35 0h-32c-1.7 0-3 1.3-3 3v18c0 1.7 1.4 3 3 3h32c1.7 0 3-1.3 3-3v-18c0-1.7-1.4-3-3-3z"/><path class="st1" d="M35 1c1.1 0 2 .9 2 2v18c0 1.1-.9 2-2 2h-32c-1.1 0-2-.9-2-2v-18c0-1.1.9-2 2-2h32"/><circle class="st2" cx="15" cy="12" r="7"/><circle class="st3" cx="23" cy="12" r="7"/><path class="st4" d="M22 12c0-2.4-1.2-4.5-3-5.7-1.8 1.3-3 3.4-3 5.7s1.2 4.5 3 5.7c1.8-1.2 3-3.3 3-5.7z"/></svg>