<?xml version="1.0" encoding="UTF-8"?>
<svg width="91px" height="22px" viewBox="0 0 91 22" version="1.1" xmlns="http://www.w3.org/2000/svg" xmlns:xlink="http://www.w3.org/1999/xlink">
    <!-- Generator: Sketch 46.2 (44496) - http://www.bohemiancoding.com/sketch -->
    <title>paypal</title>
    <desc>Created with Sketch.</desc>
    <defs>
        <polygon id="path-1" points="14.6068204 17 0.501332094 17 0.501332094 0.6223 14.6068204 0.6223 14.6068204 17"></polygon>
        <polygon id="path-3" points="16.8660169 0.044 0.000316192655 0.044 0.000316192655 19.5638 16.8660169 19.5638 16.8660169 0.044"></polygon>
    </defs>
    <g id="Desktop" stroke="none" stroke-width="1" fill="none" fill-rule="evenodd">
        <g id="btea-desktop-cart" transform="translate(-1232.000000, -1022.000000)">
            <g id="checkout" transform="translate(840.000000, 972.000000)">
                <g id="paypal" transform="translate(392.000000, 49.000000)">
                    <g id="paypal-logo">
                        <path d="M70.2626,10.5691 C69.9906,12.3551 68.6266,12.3551 67.3076,12.3551 L66.5566,12.3551 L67.0836,9.0211 C67.1156,8.8191 67.2886,8.6711 67.4926,8.6711 L67.8366,8.6711 C68.7346,8.6711 69.5836,8.6711 70.0206,9.1821 C70.2826,9.4891 70.3616,9.9421 70.2626,10.5691 M69.6886,5.9101 L64.7126,5.9101 C64.3726,5.9101 64.0826,6.1571 64.0296,6.4931 L62.0176,19.2521 C61.9776,19.5041 62.1726,19.7311 62.4276,19.7311 L64.9806,19.7311 C65.2186,19.7311 65.4216,19.5581 65.4586,19.3231 L66.0296,15.7061 C66.0816,15.3701 66.3716,15.1221 66.7116,15.1221 L68.2866,15.1221 C71.5636,15.1221 73.4556,13.5361 73.9496,10.3921 C74.1726,9.0171 73.9586,7.9371 73.3146,7.1801 C72.6076,6.3491 71.3526,5.9101 69.6886,5.9101" id="Fill-1" fill="#FFFFFF"></path>
                        <path d="M34.7738,10.5691 C34.5018,12.3551 33.1378,12.3551 31.8188,12.3551 L31.0678,12.3551 L31.5938,9.0211 C31.6268,8.8191 31.7998,8.6711 32.0038,8.6711 L32.3478,8.6711 C33.2458,8.6711 34.0948,8.6711 34.5318,9.1821 C34.7938,9.4891 34.8728,9.9421 34.7738,10.5691 M34.1998,5.9101 L29.2238,5.9101 C28.8838,5.9101 28.5938,6.1571 28.5408,6.4931 L26.5288,19.2521 C26.4888,19.5041 26.6838,19.7311 26.9388,19.7311 L29.3148,19.7311 C29.6548,19.7311 29.9438,19.4841 29.9978,19.1481 L30.5408,15.7061 C30.5928,15.3701 30.8828,15.1221 31.2228,15.1221 L32.7978,15.1221 C36.0748,15.1221 37.9668,13.5361 38.4608,10.3921 C38.6838,9.0171 38.4698,7.9371 37.8258,7.1801 C37.1188,6.3491 35.8638,5.9101 34.1998,5.9101" id="Fill-3" fill="#FFFFFF"></path>
                        <path d="M45.7514,15.1502 C45.5214,16.5112 44.4404,17.4252 43.0624,17.4252 C42.3714,17.4252 41.8174,17.2032 41.4614,16.7822 C41.1094,16.3652 40.9774,15.7702 41.0884,15.1082 C41.3034,13.7592 42.4014,12.8162 43.7584,12.8162 C44.4354,12.8162 44.9844,13.0412 45.3474,13.4652 C45.7124,13.8932 45.8554,14.4912 45.7514,15.1502 M49.0714,10.5122 L46.6884,10.5122 C46.4844,10.5122 46.3114,10.6612 46.2794,10.8632 L46.1744,11.5292 L46.0084,11.2882 C45.4924,10.5392 44.3424,10.2882 43.1934,10.2882 C40.5614,10.2882 38.3134,12.2832 37.8754,15.0812 C37.6474,16.4762 37.9704,17.8102 38.7624,18.7412 C39.4894,19.5962 40.5264,19.9532 41.7634,19.9532 C43.8844,19.9532 45.0614,18.5892 45.0614,18.5892 L44.9554,19.2522 C44.9154,19.5042 45.1094,19.7312 45.3644,19.7312 L47.5104,19.7312 C47.8504,19.7312 48.1404,19.4842 48.1934,19.1482 L49.4814,10.9922 C49.5214,10.7402 49.3264,10.5122 49.0714,10.5122" id="Fill-5" fill="#FFFFFF"></path>
                        <path d="M81.2401,15.1502 C81.0101,16.5112 79.9291,17.4252 78.5511,17.4252 C77.8601,17.4252 77.3061,17.2032 76.9501,16.7822 C76.5981,16.3652 76.4661,15.7702 76.5771,15.1082 C76.7921,13.7592 77.8901,12.8162 79.2471,12.8162 C79.9241,12.8162 80.4731,13.0412 80.8361,13.4652 C81.2011,13.8932 81.3441,14.4912 81.2401,15.1502 M84.5601,10.5122 L82.1781,10.5122 C81.9731,10.5122 81.8001,10.6612 81.7681,10.8632 L81.6631,11.5292 L81.4971,11.2882 C80.9811,10.5392 79.8311,10.2882 78.6821,10.2882 C76.0501,10.2882 73.8021,12.2832 73.3641,15.0812 C73.1361,16.4762 73.4601,17.8102 74.2511,18.7412 C74.9781,19.5962 76.0151,19.9532 77.2521,19.9532 C79.3731,19.9532 80.5501,18.5892 80.5501,18.5892 L80.4441,19.2522 C80.4041,19.5042 80.5981,19.7312 80.8531,19.7312 L82.9991,19.7312 C83.3391,19.7312 83.6291,19.4842 83.6821,19.1482 L84.9701,10.9922 C85.0101,10.7402 84.8151,10.5122 84.5601,10.5122" id="Fill-7" fill="#FFFFFF"></path>
                        <path d="M61.7616,10.5125 L59.3666,10.5125 C59.1376,10.5125 58.9236,10.6255 58.7946,10.8155 L55.4906,15.6815 L54.0916,11.0055 C54.0036,10.7125 53.7346,10.5125 53.4286,10.5125 L51.0746,10.5125 C50.7906,10.5125 50.5906,10.7915 50.6816,11.0615 L53.3196,18.8015 L50.8386,22.3005 C50.6446,22.5755 50.8406,22.9555 51.1776,22.9555 L53.5696,22.9555 C53.7966,22.9555 54.0086,22.8445 54.1376,22.6585 L62.1026,11.1635 C62.2926,10.8885 62.0956,10.5125 61.7616,10.5125" id="Fill-9" fill="#FFFFFF"></path>
                        <path d="M87.3686,6.2605 L85.3266,19.2515 C85.2866,19.5035 85.4816,19.7315 85.7366,19.7315 L87.7896,19.7315 C88.1306,19.7315 88.4196,19.4845 88.4726,19.1485 L90.4866,6.3895 C90.5266,6.1375 90.3316,5.9095 90.0766,5.9095 L87.7786,5.9095 C87.5746,5.9095 87.4006,6.0585 87.3686,6.2605" id="Fill-11" fill="#FFFFFF"></path>
                        <g id="Group-15" opacity="0.5" transform="translate(4.000000, 5.955600)">
                            <mask id="mask-2" fill="white">
                                <use xlink:href="#path-1"></use>
                            </mask>
                            <g id="Clip-14"></g>
                            <path d="M13.7397,1.3723 C13.4767,1.0723 13.1497,0.8243 12.7677,0.6223 C12.7477,0.7533 12.7247,0.8853 12.6977,1.0213 C11.7987,5.6423 8.7187,7.2393 4.7867,7.2393 L2.7847,7.2393 C2.3047,7.2393 1.8987,7.5893 1.8237,8.0633 L1.8567,7.8533 L0.7987,14.5633 L0.5077,16.4073 C0.4587,16.7193 0.6987,17.0003 1.0137,17.0003 L4.5647,17.0003 C4.9857,17.0003 5.3437,16.6943 5.4087,16.2783 L5.4437,16.0993 L6.1127,11.8563 L6.1557,11.6223 C6.2207,11.2073 6.5787,10.9013 6.9987,10.9013 L7.5307,10.9013 C10.9697,10.9013 13.6637,9.5043 14.4507,5.4623 C14.7797,3.7723 14.6097,2.3633 13.7397,1.3723" id="Fill-13" fill="#FFFFFF" mask="url(#mask-2)"></path>
                        </g>
                        <path d="M15.8261,6.2029 C15.6891,6.1629 15.5471,6.1269 15.4011,6.0939 C15.2551,6.0609 15.1051,6.0329 14.9511,6.0089 C14.4101,5.9219 13.8201,5.8799 13.1861,5.8799 L7.8371,5.8799 C7.7061,5.8799 7.5801,5.9099 7.4691,5.9639 C7.2221,6.0819 7.0381,6.3149 6.9931,6.5999 L5.8571,13.8089 L5.8241,14.0189 C5.8991,13.5449 6.3051,13.1949 6.7851,13.1949 L8.7871,13.1949 C12.7191,13.1949 15.7981,11.5979 16.6981,6.9769 C16.7241,6.8409 16.7471,6.7089 16.7681,6.5779 C16.5401,6.4579 16.2931,6.3529 16.0281,6.2649 C15.9621,6.2439 15.8941,6.2229 15.8261,6.2029" id="Fill-16" fill="#FFFFFF" opacity="0.6"></path>
                        <path d="M15.8261,6.2029 C15.6891,6.1629 15.5471,6.1269 15.4011,6.0939 C15.2551,6.0609 15.1051,6.0329 14.9511,6.0089 C14.4101,5.9219 13.8201,5.8799 13.1861,5.8799 L7.8371,5.8799 C7.7061,5.8799 7.5801,5.9099 7.4691,5.9639 C7.2221,6.0819 7.0381,6.3149 6.9931,6.5999 L5.8571,13.8089 L5.8241,14.0189 C5.8991,13.5449 6.3051,13.1949 6.7851,13.1949 L8.7871,13.1949 C12.7191,13.1949 15.7981,11.5979 16.6981,6.9769 C16.7241,6.8409 16.7471,6.7089 16.7681,6.5779 C16.5401,6.4579 16.2931,6.3529 16.0281,6.2649 C15.9621,6.2439 15.8941,6.2229 15.8261,6.2029" id="Fill-18" fill="#FFFFFF" opacity="0.6"></path>
                        <g id="Group-22" transform="translate(0.000000, 0.955600)">
                            <mask id="mask-4" fill="white">
                                <use xlink:href="#path-3"></use>
                            </mask>
                            <g id="Clip-21"></g>
                            <path d="M6.9936,5.6448 C7.0386,5.3598 7.2226,5.1258 7.4686,5.0078 C7.5806,4.9548 7.7056,4.9238 7.8376,4.9238 L13.1856,4.9238 C13.8196,4.9238 14.4106,4.9658 14.9516,5.0528 C15.1056,5.0778 15.2556,5.1058 15.4016,5.1378 C15.5476,5.1708 15.6886,5.2078 15.8266,5.2478 C15.8946,5.2668 15.9626,5.2888 16.0286,5.3098 C16.2936,5.3978 16.5406,5.5018 16.7676,5.6228 C17.0356,3.9148 16.7656,2.7518 15.8426,1.6998 C14.8256,0.5408 12.9876,0.0438 10.6376,0.0438 L3.8126,0.0438 C3.3326,0.0438 2.9236,0.3938 2.8486,0.8688 L0.0076,18.8868 C-0.0484,19.2428 0.2256,19.5638 0.5856,19.5638 L4.7986,19.5638 L5.8566,12.8538 L6.9936,5.6448 Z" id="Fill-20" fill="#FFFFFF" mask="url(#mask-4)"></path>
                        </g>
                    </g>
                </g>
            </g>
        </g>
    </g>
</svg>