<svg xmlns="http://www.w3.org/2000/svg" xmlns:xlink="http://www.w3.org/1999/xlink" viewBox="0 0 20 20" enable-background="new 0 0 20 20"><style type="text/css">.st0{clip-path:url(#SVGID_2_);fill:#56943E;}</style><defs><path id="SVGID_1_" d="M15.4 4.3c-1.1-1.2-2.8-1.8-4.8-1.8-1.9 0-3.8.9-5 2.3-1.3 1.5-1.8 3.4-1.5 5.3.1.5.6.9 1.1.8.5-.1.9-.6.8-1.1-.1-1.4.2-2.7 1.1-3.7.9-1 2.2-1.6 3.5-1.6 1.4 0 2.6.4 3.3 1.2.7.7 1.1 1.7 1 2.9-.1 1.7-.9 3-2.4 3.5-1.1.4-2.4.2-3.2-.4l1.1-4c.1-.5-.2-1.1-.7-1.2-.4-.1-.9.2-1.1.7l-2.5 9.1c-.1.5.2 1.1.7 1.2h.3c.4 0 .8-.3 1-.7l.9-3.2c.7.4 1.6.6 2.5.6.6 0 1.3-.1 1.9-.3 2.2-.8 3.6-2.7 3.7-5.2 0-1.8-.6-3.3-1.7-4.4"/></defs><clipPath id="SVGID_2_"><use xlink:href="#SVGID_1_" overflow="visible"/></clipPath><path class="st0" d="M-1-2.5h23v25h-23z"/></svg>