<svg xmlns="http://www.w3.org/2000/svg" viewBox="0 0 20 20" enable-background="new 0 0 20 20"><style type="text/css">.st0{fill-rule:evenodd;clip-rule:evenodd;fill:#56943E;}</style><path class="st0" d="M10 4.1c3.2 0 4.2.1 5.9.2 1.5.1 1.9 1.3 1.9 2 .2 1.4.2 3 .2 3.6 0 .7 0 2.2-.2 3.6-.1.7-.4 1.9-1.9 2-1.7.1-2.7.2-5.9.2s-4.2-.1-5.9-.2c-1.5-.1-1.9-1.3-1.9-2-.2-1.1-.3-2.6-.3-3.5 0-.7 0-2.2.2-3.6.1-.7.4-1.9 1.9-2 1.8-.2 2.8-.3 6-.3m0-1.9c-3.2 0-4.3.1-6.1.2-2.1.3-3.5 1.7-3.7 3.7-.1 1.5-.2 3.1-.2 3.9 0 .8.1 2.4.2 3.9.2 2 1.6 3.5 3.7 3.7 1.8.2 2.9.2 6.1.2s4.3-.1 6.1-.2c2.1-.2 3.5-1.7 3.7-3.7.2-1.4.2-3 .2-3.9 0-.8-.1-2.4-.2-3.9-.2-2-1.6-3.5-3.7-3.7-1.8-.1-2.9-.2-6.1-.2"/><path class="st0" d="M7.7 14.1c-.2 0-.3 0-.5-.1-.3-.2-.5-.5-.5-.8v-6.4c0-.3.2-.6.5-.8.3-.2.6-.2.9 0l6.1 3.2c.3.2.5.5.5.8 0 .4-.2.7-.5.8l-6.1 3.2c-.1.1-.3.1-.4.1zm.9-5.7v3.2l3.1-1.6-3.1-1.6z"/></svg>